<svg xmlns="http://www.w3.org/2000/svg" viewBox="0 0 512 512">
  <defs>
    <linearGradient id="bg" x1="0%" y1="0%" x2="100%" y2="100%">
      <stop offset="0%" style="stop-color:#0078d4"/>
      <stop offset="100%" style="stop-color:#106ebe"/>
    </linearGradient>
  </defs>
  <rect width="512" height="512" rx="64" fill="url(#bg)"/>
  <g fill="white">
    <!-- PDF document icon -->
    <path d="M160 80h128l80 80v272c0 17.7-14.3 32-32 32H160c-17.7 0-32-14.3-32-32V112c0-17.7 14.3-32 32-32z"/>
    <path d="M288 80v64c0 8.8 7.2 16 16 16h64" fill="none" stroke="white" stroke-width="16"/>
    <!-- Tool/gear symbols -->
    <circle cx="200" cy="280" r="40" fill="#0078d4"/>
    <rect x="180" y="260" width="40" height="40" rx="4" fill="white"/>
    <circle cx="296" cy="280" r="40" fill="#0078d4"/>
    <polygon points="296,250 316,290 276,290" fill="white"/>
  </g>
</svg>
