<svg xmlns="http://www.w3.org/2000/svg" viewBox="0 0 192 192">
  <defs>
    <linearGradient id="bg" x1="0%" y1="0%" x2="100%" y2="100%">
      <stop offset="0%" style="stop-color:#0078d4"/>
      <stop offset="100%" style="stop-color:#106ebe"/>
    </linearGradient>
  </defs>
  <rect width="192" height="192" rx="24" fill="url(#bg)"/>
  <g fill="white" transform="translate(32, 24) scale(0.67)">
    <!-- PDF document icon -->
    <path d="M32 16h64l40 40v136c0 8.8-7.2 16-16 16H32c-8.8 0-16-7.2-16-16V32c0-8.8 7.2-16 16-16z"/>
    <path d="M96 16v32c0 4.4 3.6 8 8 8h32" fill="none" stroke="white" stroke-width="8"/>
    <!-- Tool symbols -->
    <circle cx="56" cy="120" r="20" fill="#0078d4"/>
    <rect x="46" y="110" width="20" height="20" rx="2" fill="white"/>
    <circle cx="104" cy="120" r="20" fill="#0078d4"/>
    <polygon points="104,105 114,130 94,130" fill="white"/>
  </g>
</svg>
